<svg width="20" height="20" viewBox="0 0 20 20" fill="none" xmlns="http://www.w3.org/2000/svg">
<g clip-path="url(#clip0_143_11039)">
<path d="M5.82512 16.5186C4.08391 14.7775 3.125 12.4624 3.125 10C3.125 7.53758 4.08391 5.22254 5.82512 3.48137C7.28695 2.01949 9.1534 1.10934 11.1719 0.854883C10.7862 0.80625 10.395 0.78125 10 0.78125C7.53758 0.78125 5.22254 1.74016 3.48137 3.48137C1.74016 5.22254 0.78125 7.53758 0.78125 10C0.78125 12.4624 1.74016 14.7775 3.48137 16.5186C5.22254 18.2598 7.53758 19.2188 10 19.2188C10.395 19.2188 10.7862 19.1938 11.1719 19.1451C9.1534 18.8907 7.28695 17.9805 5.82512 16.5186Z" fill="#CEE1F2"/>
<path d="M10.0002 10.7812C9.79685 10.7812 9.59708 10.7019 9.44759 10.5524L6.32259 7.42742C6.01747 7.1223 6.01747 6.62766 6.32259 6.32258C6.62771 6.0175 7.12239 6.01746 7.42747 6.32258L9.21876 8.11391V6.875C9.21876 6.44352 9.56853 6.09375 10 6.09375C10.4315 6.09375 10.7813 6.44352 10.7813 6.875V10C10.7813 10.316 10.5909 10.6009 10.299 10.7218C10.2024 10.7618 10.1008 10.7812 10.0002 10.7812Z" fill="#F2E01B"/>
<path d="M10 20C7.32891 20 4.8177 18.9598 2.92891 17.0711C1.0402 15.1823 0 12.6711 0 10C0 7.32887 1.0402 4.81766 2.92895 2.92895C4.8177 1.0402 7.32891 0 10 0C12.6711 0 15.1823 1.0402 17.0711 2.92895C18.9598 4.81766 20 7.32887 20 10C20 12.6711 18.9598 15.1823 17.0711 17.0711C15.1823 18.9598 12.6711 20 10 20ZM10 1.5625C7.74629 1.5625 5.62742 2.44016 4.03383 4.03379C2.44016 5.62742 1.5625 7.74625 1.5625 10C1.5625 12.2537 2.44016 14.3726 4.03379 15.9662C5.62742 17.5598 7.74629 18.4375 10 18.4375C12.2537 18.4375 14.3726 17.5598 15.9662 15.9662C17.5598 14.3726 18.4375 12.2537 18.4375 10C18.4375 7.74625 17.5598 5.62742 15.9662 4.03379C14.3726 2.44016 12.2537 1.5625 10 1.5625Z" fill="#0D0D0D"/>
<path d="M10 4.6875C10.4315 4.6875 10.7812 4.33772 10.7812 3.90625C10.7812 3.47478 10.4315 3.125 10 3.125C9.56853 3.125 9.21875 3.47478 9.21875 3.90625C9.21875 4.33772 9.56853 4.6875 10 4.6875Z" fill="#0D0D0D"/>
<path d="M10 16.875C10.4315 16.875 10.7812 16.5252 10.7812 16.0938C10.7812 15.6623 10.4315 15.3125 10 15.3125C9.56853 15.3125 9.21875 15.6623 9.21875 16.0938C9.21875 16.5252 9.56853 16.875 10 16.875Z" fill="#0D0D0D"/>
<path d="M3.90625 10.7812C4.33772 10.7812 4.6875 10.4315 4.6875 10C4.6875 9.56853 4.33772 9.21875 3.90625 9.21875C3.47478 9.21875 3.125 9.56853 3.125 10C3.125 10.4315 3.47478 10.7812 3.90625 10.7812Z" fill="#0D0D0D"/>
<path d="M16.0938 10.7812C16.5252 10.7812 16.875 10.4315 16.875 10C16.875 9.56853 16.5252 9.21875 16.0938 9.21875C15.6623 9.21875 15.3125 9.56853 15.3125 10C15.3125 10.4315 15.6623 10.7812 16.0938 10.7812Z" fill="#0D0D0D"/>
</g>
<defs>
<clipPath id="clip0_143_11039">
<rect width="20" height="20" fill="white"/>
</clipPath>
</defs>
</svg>
