<svg width="24" height="24" viewBox="0 0 24 24" fill="none" xmlns="http://www.w3.org/2000/svg">
<mask id="mask0_1239_20033" style="mask-type:alpha" maskUnits="userSpaceOnUse" x="0" y="0" width="24" height="24">
<rect width="24" height="24" fill="#D9D9D9"/>
</mask>
<g mask="url(#mask0_1239_20033)">
<path d="M13.5 8.18275V4.81725C13.5 4.57875 13.578 4.38292 13.734 4.22975C13.8898 4.07658 14.083 4 14.3135 4H19.1947C19.4253 4 19.6171 4.07658 19.7703 4.22975C19.9234 4.38292 20 4.57875 20 4.81725V8.18275C20 8.42125 19.922 8.61708 19.766 8.77025C19.6102 8.92342 19.417 9 19.1865 9H14.3053C14.0748 9 13.8829 8.92342 13.7298 8.77025C13.5766 8.61708 13.5 8.42125 13.5 8.18275ZM4 11.2V4.79975C4 4.57292 4.078 4.38292 4.234 4.22975C4.38983 4.07658 4.583 4 4.8135 4H9.69475C9.92525 4 10.1171 4.07667 10.2702 4.23C10.4234 4.38333 10.5 4.57333 10.5 4.8V11.2003C10.5 11.4271 10.422 11.6171 10.266 11.7702C10.1102 11.9234 9.917 12 9.6865 12H4.80525C4.57475 12 4.38292 11.9233 4.22975 11.77C4.07658 11.6167 4 11.4267 4 11.2ZM13.5 19.2V12.7998C13.5 12.5729 13.578 12.3829 13.734 12.2298C13.8898 12.0766 14.083 12 14.3135 12H19.1947C19.4253 12 19.6171 12.0767 19.7703 12.23C19.9234 12.3833 20 12.5733 20 12.8V19.2003C20 19.4271 19.922 19.6171 19.766 19.7703C19.6102 19.9234 19.417 20 19.1865 20H14.3053C14.0748 20 13.8829 19.9233 13.7298 19.77C13.5766 19.6167 13.5 19.4267 13.5 19.2ZM4 19.1827V15.8173C4 15.5788 4.078 15.3829 4.234 15.2298C4.38983 15.0766 4.583 15 4.8135 15H9.69475C9.92525 15 10.1171 15.0766 10.2702 15.2298C10.4234 15.3829 10.5 15.5788 10.5 15.8173V19.1827C10.5 19.4212 10.422 19.6171 10.266 19.7703C10.1102 19.9234 9.917 20 9.6865 20H4.80525C4.57475 20 4.38292 19.9234 4.22975 19.7703C4.07658 19.6171 4 19.4212 4 19.1827ZM5 11H9.5V5H5V11ZM14.5 19H19V13H14.5V19ZM14.5 8H19V5H14.5V8ZM5 19H9.5V16H5V19Z" fill="#0D0D0D" fill-opacity="0.7"/>
</g>
</svg>
