<svg width="22" height="9" viewBox="0 0 22 9" fill="none" xmlns="http://www.w3.org/2000/svg">
<path d="M3.5385 5.33275L5.275 3.59625L3.5385 1.85975L1.802 3.59625L3.5385 5.33275ZM16.7307 5.0385L18.5 2.1925L20.2885 5.0385H16.7307ZM11.0068 4.38475C10.3997 4.38475 9.8815 4.17158 9.452 3.74525C9.0225 3.31908 8.80775 2.8015 8.80775 2.1925C8.80775 1.57133 9.02083 1.05067 9.447 0.630501C9.87333 0.210167 10.391 0 11 0C11.6212 0 12.1418 0.2095 12.562 0.6285C12.9822 1.04733 13.1923 1.56642 13.1923 2.18575C13.1923 2.79275 12.9828 3.311 12.564 3.7405C12.1452 4.17 11.6261 4.38475 11.0068 4.38475ZM11 1C10.6782 1 10.399 1.11433 10.1625 1.343C9.926 1.5715 9.80775 1.85467 9.80775 2.1925C9.80775 2.51417 9.926 2.79333 10.1625 3.03C10.399 3.2665 10.6813 3.38475 11.0095 3.38475C11.3378 3.38475 11.617 3.2665 11.847 3.03C12.0772 2.79333 12.1923 2.51092 12.1923 2.18275C12.1923 1.85458 12.078 1.57542 11.8495 1.34525C11.621 1.11508 11.3378 1 11 1ZM0 8.96175V8.09825C0 7.48025 0.326333 6.96967 0.979 6.5665C1.63167 6.16333 2.47858 5.96175 3.51975 5.96175C3.71042 5.96175 3.89292 5.96908 4.06725 5.98375C4.24158 5.99858 4.40767 6.02267 4.5655 6.056C4.42183 6.31233 4.31092 6.58158 4.23275 6.86375C4.15458 7.14592 4.1155 7.4465 4.1155 7.7655V8.96175H0ZM6 8.96175V7.83675C6 7.00975 6.46233 6.35267 7.387 5.8655C8.3115 5.37833 9.51758 5.13475 11.0052 5.13475C12.5069 5.13475 13.7148 5.37833 14.6288 5.8655C15.5429 6.35267 16 7.00975 16 7.83675V8.96175H6ZM18.5 5.96175C19.55 5.96175 20.3958 6.16333 21.0375 6.5665C21.6792 6.96967 22 7.48025 22 8.09825V8.96175H17.8845V7.7655C17.8845 7.4465 17.8496 7.14592 17.7798 6.86375C17.7099 6.58158 17.6052 6.31233 17.4655 6.056C17.6232 6.02267 17.7894 5.99858 17.9643 5.98375C18.1391 5.96908 18.3177 5.96175 18.5 5.96175ZM10.9978 6.13475C9.86975 6.13475 8.934 6.28542 8.1905 6.58675C7.44683 6.88792 7.05958 7.27575 7.02875 7.75025V7.96175H14.977V7.75025C14.9423 7.27575 14.5573 6.88792 13.822 6.58675C13.0868 6.28542 12.1454 6.13475 10.9978 6.13475Z" fill="#6600CC"/>
</svg>
