<svg width="28" height="28" viewBox="0 0 28 28" fill="none" xmlns="http://www.w3.org/2000/svg">
<rect width="28" height="28" rx="14" fill="url(#paint0_linear_35567_35531)"/>
<path d="M11.6698 14.0355C11.6698 12.7458 12.7148 11.6999 14.0042 11.6999C15.2936 11.6999 16.3391 12.7458 16.3391 14.0355C16.3391 15.3253 15.2936 16.3711 14.0042 16.3711C12.7148 16.3711 11.6698 15.3253 11.6698 14.0355ZM10.4076 14.0355C10.4076 16.0225 12.0178 17.6331 14.0042 17.6331C15.9906 17.6331 17.6008 16.0225 17.6008 14.0355C17.6008 12.0486 15.9906 10.4379 14.0042 10.4379C12.0178 10.4379 10.4076 12.0486 10.4076 14.0355ZM16.9026 10.2953C16.9026 10.4615 16.9518 10.6241 17.0441 10.7624C17.1364 10.9007 17.2676 11.0085 17.4212 11.0722C17.5748 11.1359 17.7437 11.1526 17.9068 11.1203C18.0699 11.0879 18.2196 11.0079 18.3372 10.8903C18.4548 10.7728 18.5349 10.623 18.5674 10.4599C18.5999 10.2969 18.5834 10.1278 18.5198 9.97417C18.4563 9.82052 18.3486 9.68917 18.2104 9.59673C18.0722 9.50429 17.9097 9.45492 17.7435 9.45485H17.7432C17.5203 9.45495 17.3067 9.54352 17.1491 9.7011C16.9915 9.85867 16.9028 10.0724 16.9026 10.2953ZM11.1745 19.7384C10.4916 19.7073 10.1205 19.5935 9.8738 19.4974C9.54678 19.3701 9.31346 19.2184 9.06814 18.9733C8.82283 18.7283 8.67098 18.4951 8.54423 18.168C8.44808 17.9214 8.33433 17.55 8.30329 16.8669C8.26933 16.1284 8.26255 15.9066 8.26255 14.0356C8.26255 12.1646 8.26989 11.9433 8.30329 11.2042C8.33438 10.5211 8.44897 10.1505 8.54423 9.90314C8.67154 9.57603 8.82317 9.34264 9.06814 9.09725C9.31312 8.85187 9.54622 8.69997 9.8738 8.57319C10.1203 8.47701 10.4916 8.36323 11.1745 8.33217C11.9128 8.29821 12.1346 8.29143 14.0042 8.29143C15.8738 8.29143 16.0958 8.29877 16.8347 8.33217C17.5176 8.36328 17.8882 8.4779 18.1354 8.57319C18.4625 8.69997 18.6958 8.8522 18.9411 9.09725C19.1864 9.3423 19.3377 9.57603 19.465 9.90314C19.5612 10.1498 19.6749 10.5211 19.706 11.2042C19.7399 11.9433 19.7467 12.1646 19.7467 14.0356C19.7467 15.9066 19.7399 16.1278 19.706 16.8669C19.6749 17.55 19.5605 17.9213 19.465 18.168C19.3377 18.4951 19.1861 18.7285 18.9411 18.9733C18.6961 19.2182 18.4625 19.3701 18.1354 19.4974C17.8889 19.5936 17.5176 19.7074 16.8347 19.7384C16.0964 19.7724 15.8747 19.7792 14.0042 19.7792C12.1337 19.7792 11.9126 19.7724 11.1745 19.7384ZM11.1165 7.07173C10.3709 7.10569 9.86136 7.22396 9.41639 7.39715C8.95557 7.57601 8.56547 7.81596 8.17564 8.20528C7.78582 8.5946 7.54655 8.98543 7.36775 9.44639C7.1946 9.89176 7.07637 10.4011 7.04242 11.147C7.0079 11.894 7 12.1329 7 14.0355C7 15.9382 7.0079 16.177 7.04242 16.924C7.07637 17.67 7.1946 18.1793 7.36775 18.6247C7.54655 19.0853 7.78587 19.4766 8.17564 19.8658C8.56541 20.2549 8.95557 20.4945 9.41639 20.6739C9.8622 20.8471 10.3709 20.9653 11.1165 20.9993C11.8637 21.0333 12.1021 21.0417 14.0042 21.0417C15.9063 21.0417 16.1451 21.0338 16.8919 20.9993C17.6376 20.9653 18.1468 20.8471 18.592 20.6739C19.0525 20.4945 19.4429 20.2551 19.8328 19.8658C20.2226 19.4764 20.4613 19.0853 20.6407 18.6247C20.8138 18.1793 20.9326 17.6699 20.966 16.924C20.9999 16.1765 21.0078 15.9382 21.0078 14.0355C21.0078 12.1329 20.9999 11.894 20.966 11.147C20.932 10.4011 20.8138 9.89148 20.6407 9.44639C20.4613 8.98571 20.222 8.59522 19.8328 8.20528C19.4435 7.81534 19.0525 7.57601 18.5926 7.39715C18.1468 7.22396 17.6375 7.10513 16.8925 7.07173C16.1456 7.03776 15.9069 7.0293 14.0048 7.0293C12.1026 7.0293 11.8637 7.0372 11.1165 7.07173Z" fill="white"/>
<defs>
<linearGradient id="paint0_linear_35567_35531" x1="27.4618" y1="28" x2="-0.538159" y2="-7.53681e-07" gradientUnits="userSpaceOnUse">
<stop stop-color="#FBE18A"/>
<stop offset="0.21" stop-color="#FCBB45"/>
<stop offset="0.38" stop-color="#F75274"/>
<stop offset="0.52" stop-color="#D53692"/>
<stop offset="0.74" stop-color="#8F39CE"/>
<stop offset="1" stop-color="#5B4FE9"/>
</linearGradient>
</defs>
</svg>
