<svg width="20" height="20" viewBox="0 0 20 20" fill="none" xmlns="http://www.w3.org/2000/svg">
<g clip-path="url(#clip0_1239_20083)">
<path d="M2.96875 19.2188C2.10938 19.2188 1.40625 18.5156 1.40625 17.6562V2.34375C1.40625 1.48438 2.10938 0.78125 2.96875 0.78125H15.4688C16.3281 0.78125 17.0312 1.48438 17.0312 2.34375V12.9688" stroke="#0D0D0D" stroke-opacity="0.7" stroke-miterlimit="10" stroke-linecap="round" stroke-linejoin="round"/>
<path d="M17.0312 19.2188C17.8942 19.2188 18.5938 18.5192 18.5938 17.6562C18.5938 16.7933 17.8942 16.0938 17.0312 16.0938H6.09375C5.23082 16.0938 4.53125 16.7933 4.53125 17.6562C4.53125 18.5156 3.82812 19.2188 2.96875 19.2188H17.0312Z" stroke="#0D0D0D" stroke-opacity="0.7" stroke-miterlimit="10" stroke-linecap="round" stroke-linejoin="round"/>
<path d="M10.7812 3.75H13.9062" stroke="#0D0D0D" stroke-opacity="0.7" stroke-miterlimit="10" stroke-linecap="round" stroke-linejoin="round"/>
<path d="M13.9062 6.875H10.7812" stroke="#0D0D0D" stroke-opacity="0.7" stroke-miterlimit="10" stroke-linecap="round" stroke-linejoin="round"/>
<path d="M10.7812 10H13.9062" stroke="#0D0D0D" stroke-opacity="0.7" stroke-miterlimit="10" stroke-linecap="round" stroke-linejoin="round"/>
<path d="M10.7812 13.125H13.9062" stroke="#0D0D0D" stroke-opacity="0.7" stroke-miterlimit="10" stroke-linecap="round" stroke-linejoin="round"/>
<path d="M6.09375 3.75V5.3125" stroke="#0D0D0D" stroke-opacity="0.7" stroke-miterlimit="10" stroke-linecap="round" stroke-linejoin="round"/>
<path d="M7.65625 6.875C7.65625 6.01207 6.95668 5.3125 6.09375 5.3125C5.23082 5.3125 4.53125 6.01207 4.53125 6.875C4.53125 7.73793 5.23082 8.4375 6.09375 8.4375C6.95668 8.4375 7.65625 9.13703 7.65625 10C7.65625 10.863 6.95668 11.5625 6.09375 11.5625C5.23082 11.5625 4.53125 10.8629 4.53125 10" stroke="#0D0D0D" stroke-opacity="0.7" stroke-miterlimit="10" stroke-linecap="round" stroke-linejoin="round"/>
<path d="M6.09375 11.5625V13.125" stroke="#0D0D0D" stroke-opacity="0.7" stroke-miterlimit="10" stroke-linecap="round" stroke-linejoin="round"/>
</g>
<defs>
<clipPath id="clip0_1239_20083">
<rect width="20" height="20" fill="white"/>
</clipPath>
</defs>
</svg>
