<svg width="28" height="28" viewBox="0 0 28 28" fill="none" xmlns="http://www.w3.org/2000/svg">
<rect x="0.5" y="0.5" width="27" height="27" rx="13.5" stroke="#6600CC"/>
<mask id="mask0_35567_35533" style="mask-type:alpha" maskUnits="userSpaceOnUse" x="6" y="6" width="16" height="16">
<rect x="6" y="6" width="16" height="16" fill="#D9D9D9"/>
</mask>
<g mask="url(#mask0_35567_35533)">
<path d="M11.382 19.6673C10.5393 19.6673 9.82025 19.3696 9.22503 18.7743C8.6297 18.1791 8.33203 17.4601 8.33203 16.6173C8.33203 16.2071 8.40792 15.8169 8.5597 15.4468C8.71136 15.0767 8.93209 14.7468 9.22186 14.4572L11.3462 12.3493L12.0487 13.052L9.92436 15.1698C9.72692 15.3673 9.57775 15.5908 9.47686 15.8403C9.37609 16.09 9.3257 16.349 9.3257 16.6173C9.3257 17.1874 9.52586 17.6716 9.9262 18.0698C10.3266 18.4682 10.8119 18.6673 11.382 18.6673C11.6504 18.6673 11.911 18.6169 12.164 18.516C12.417 18.4152 12.6423 18.2661 12.8397 18.0687L14.9539 15.9507L15.6667 16.6635L13.5422 18.7711C13.2525 19.0609 12.9226 19.2827 12.5525 19.4365C12.1824 19.5904 11.7923 19.6673 11.382 19.6673ZM12.6539 16.052L11.9474 15.3392L15.3435 11.943L16.0564 12.6558L12.6539 16.052ZM16.6512 15.6622L15.9487 14.9558L18.073 12.8417C18.2663 12.6485 18.4116 12.43 18.509 12.186C18.6064 11.9419 18.655 11.6857 18.655 11.4173C18.655 10.8404 18.4565 10.349 18.0595 9.94298C17.6625 9.53698 17.1756 9.33398 16.5987 9.33398C16.3304 9.33398 16.0714 9.38443 15.8217 9.48532C15.5721 9.5861 15.3508 9.7331 15.1577 9.92632L13.0435 12.0507L12.3372 11.3482L14.4552 9.23015C14.7449 8.94037 15.0748 8.7186 15.4449 8.56482C15.815 8.41093 16.2051 8.33398 16.6154 8.33398C17.4581 8.33398 18.1754 8.63271 18.7672 9.23015C19.3591 9.8276 19.655 10.5511 19.655 11.4007C19.655 11.8041 19.5809 12.1898 19.4327 12.5577C19.2844 12.9257 19.0653 13.2545 18.7755 13.5442L16.6512 15.6622Z" fill="#6600CC"/>
</g>
</svg>
