<svg width="8" height="8" viewBox="0 0 8 8" fill="none" xmlns="http://www.w3.org/2000/svg">
<path d="M5.83116 4.53535C6.03564 4.53535 6.20139 4.36959 6.20139 4.16512C6.20139 3.96064 6.03564 3.79488 5.83116 3.79488C5.62669 3.79488 5.46093 3.96064 5.46093 4.16512C5.46093 4.36959 5.62669 4.53535 5.83116 4.53535Z" fill="#0D0D0D"/>
<path d="M5.83116 6.01628C6.03564 6.01628 6.20139 5.85052 6.20139 5.64605C6.20139 5.44157 6.03564 5.27581 5.83116 5.27581C5.62669 5.27581 5.46093 5.44157 5.46093 5.64605C5.46093 5.85052 5.62669 6.01628 5.83116 6.01628Z" fill="#0D0D0D"/>
<path d="M4.35023 4.16512C4.35023 4.36959 4.18447 4.53535 3.98 4.53535C3.77553 4.53535 3.60977 4.36959 3.60977 4.16512C3.60977 3.96064 3.77553 3.79488 3.98 3.79488C4.18447 3.79488 4.35023 3.96064 4.35023 4.16512Z" fill="#0D0D0D"/>
<path d="M4.35023 5.64605C4.35023 5.85052 4.18447 6.01628 3.98 6.01628C3.77553 6.01628 3.60977 5.85052 3.60977 5.64605C3.60977 5.44157 3.77553 5.27581 3.98 5.27581C4.18447 5.27581 4.35023 5.44157 4.35023 5.64605Z" fill="#0D0D0D"/>
<path d="M2.12884 4.53535C2.33331 4.53535 2.49907 4.36959 2.49907 4.16512C2.49907 3.96064 2.33331 3.79488 2.12884 3.79488C1.92436 3.79488 1.7586 3.96064 1.7586 4.16512C1.7586 4.36959 1.92436 4.53535 2.12884 4.53535Z" fill="#0D0D0D"/>
<path d="M2.12884 6.01628C2.33331 6.01628 2.49907 5.85052 2.49907 5.64605C2.49907 5.44157 2.33331 5.27581 2.12884 5.27581C1.92436 5.27581 1.7586 5.44157 1.7586 5.64605C1.7586 5.85052 1.92436 6.01628 2.12884 6.01628Z" fill="#0D0D0D"/>
<path fill-rule="evenodd" clip-rule="evenodd" d="M2.12884 0C2.28219 0 2.40651 0.124319 2.40651 0.277674V0.560058C2.6516 0.555344 2.92163 0.555346 3.2186 0.555349H4.74135C5.03833 0.555346 5.30839 0.555344 5.55349 0.560058V0.277674C5.55349 0.124319 5.67781 0 5.83116 0C5.98452 0 6.10884 0.124319 6.10884 0.277674V0.583889C6.20508 0.591226 6.29621 0.60045 6.38245 0.612044C6.81651 0.670403 7.16785 0.793364 7.44492 1.07043C7.72198 1.3475 7.84494 1.69883 7.9033 2.1329C7.96001 2.55467 7.96 3.09359 7.96 3.77398V4.55623C7.96 5.23662 7.96001 5.77556 7.9033 6.19733C7.84494 6.6314 7.72198 6.98273 7.44492 7.2598C7.16785 7.53687 6.81652 7.65983 6.38245 7.71819C5.96068 7.77489 5.42176 7.77489 4.74137 7.77488H3.21865C2.53826 7.77489 1.99932 7.77489 1.57755 7.71819C1.14348 7.65983 0.792152 7.53687 0.515084 7.2598C0.238015 6.98273 0.115055 6.6314 0.0566956 6.19733C-1.03e-05 5.77556 -5.70812e-06 5.23663 1.17718e-07 4.55624V3.774C-5.70812e-06 3.0936 -1.03e-05 2.55467 0.0566956 2.1329C0.115055 1.69883 0.238015 1.3475 0.515084 1.07043C0.792152 0.793364 1.14348 0.670403 1.57755 0.612044C1.66379 0.60045 1.75492 0.591226 1.85116 0.583889V0.277674C1.85116 0.124319 1.97548 0 2.12884 0ZM1.65155 1.16244C1.27906 1.21252 1.06446 1.30644 0.907774 1.46312C0.751088 1.61981 0.657172 1.83441 0.607092 2.2069C0.598611 2.26998 0.59152 2.33639 0.585591 2.40651H7.37441C7.36848 2.33639 7.36139 2.26998 7.35291 2.2069C7.30283 1.83441 7.20891 1.61981 7.05222 1.46312C6.89554 1.30644 6.68093 1.21252 6.30845 1.16244C5.92797 1.11129 5.42643 1.1107 4.72046 1.1107H3.23953C2.53357 1.1107 2.03203 1.11129 1.65155 1.16244ZM0.555349 3.79488C0.555349 3.4787 0.555467 3.20352 0.560193 2.96186H7.39981C7.40453 3.20352 7.40465 3.4787 7.40465 3.79488V4.53535C7.40465 5.24132 7.40406 5.74286 7.35291 6.12333C7.30283 6.49582 7.20891 6.71042 7.05222 6.86711C6.89554 7.02379 6.68093 7.11771 6.30845 7.16779C5.92797 7.21894 5.42643 7.21953 4.72046 7.21953H3.23953C2.53357 7.21953 2.03203 7.21894 1.65155 7.16779C1.27906 7.11771 1.06446 7.02379 0.907774 6.86711C0.751088 6.71042 0.657172 6.49582 0.607092 6.12333C0.555939 5.74286 0.555349 5.24132 0.555349 4.53535V3.79488Z" fill="#0D0D0D"/>
</svg>
