<svg width="21" height="21" viewBox="0 0 21 21" fill="none" xmlns="http://www.w3.org/2000/svg">
<path d="M1.5 0.875H5.4375C5.78011 0.875 6.0625 1.15739 6.0625 1.5C6.0625 2.95975 6.29573 4.36268 6.72852 5.67285C6.79585 5.89494 6.74509 6.13477 6.56934 6.31055L4.09375 8.78516L3.83691 9.04199L4.00195 9.36523C5.67024 12.6439 8.35681 15.3184 11.6328 16.9971L11.957 17.1631L12.2148 16.9062L14.6895 14.4307C14.8585 14.2616 15.1088 14.2076 15.3213 14.2803L15.3271 14.2822C16.6376 14.7151 18.0517 14.9492 19.5 14.9492C19.8426 14.9492 20.125 15.2316 20.125 15.5742V19.5C20.125 19.8426 19.8426 20.125 19.5 20.125C9.21239 20.125 0.875 11.7876 0.875 1.5C0.875 1.15739 1.15739 0.875 1.5 0.875Z" fill="white" stroke="white"/>
</svg>
