<svg width="8" height="9" viewBox="0 0 8 9" fill="none" xmlns="http://www.w3.org/2000/svg">
<path fill-rule="evenodd" clip-rule="evenodd" d="M0 3.70554C0 1.66428 1.62709 0 3.64583 0C5.66458 0 7.29167 1.66428 7.29167 3.70554C7.29167 4.691 7.01082 5.74913 6.51435 6.66328C6.01849 7.5763 5.29401 8.36968 4.38771 8.79329C3.9169 9.01335 3.37476 9.01335 2.90395 8.79329C1.99765 8.36968 1.27317 7.5763 0.777315 6.66328C0.280845 5.74913 0 4.691 0 3.70554ZM3.64583 0.625C1.98268 0.625 0.625 1.99895 0.625 3.70554C0.625 4.57932 0.876097 5.53559 1.32654 6.36499C1.7776 7.19552 2.41501 7.87485 3.1686 8.22708C3.47169 8.36875 3.81998 8.36875 4.12306 8.22708C4.87666 7.87485 5.51407 7.19552 5.96512 6.36499C6.41557 5.53559 6.66667 4.57932 6.66667 3.70554C6.66667 1.99895 5.30899 0.625 3.64583 0.625ZM3.64583 2.70833C3.12807 2.70833 2.70833 3.12807 2.70833 3.64583C2.70833 4.1636 3.12807 4.58333 3.64583 4.58333C4.1636 4.58333 4.58333 4.1636 4.58333 3.64583C4.58333 3.12807 4.1636 2.70833 3.64583 2.70833ZM2.08333 3.64583C2.08333 2.78289 2.78289 2.08333 3.64583 2.08333C4.50878 2.08333 5.20833 2.78289 5.20833 3.64583C5.20833 4.50878 4.50878 5.20833 3.64583 5.20833C2.78289 5.20833 2.08333 4.50878 2.08333 3.64583Z" fill="#343434"/>
</svg>
