<svg width="27" height="27" viewBox="0 0 27 27" fill="none" xmlns="http://www.w3.org/2000/svg">
<path d="M13.5029 3.19922C19.1904 3.19922 23.8027 7.80999 23.8027 13.498C23.8026 19.1862 19.1901 23.7998 13.5029 23.7998C11.4958 23.7998 9.62914 23.2157 8.04395 22.2207L7.8252 22.083L7.58691 22.1816L3.75684 23.7686C3.66094 23.8081 3.55214 23.811 3.44922 23.7686C3.24529 23.6822 3.15008 23.4493 3.2334 23.2471L4.82031 19.416L4.91895 19.1777L4.78125 18.959C3.78571 17.3739 3.20316 15.5055 3.20312 13.498C3.20312 7.81003 7.81478 3.19932 13.5029 3.19922ZM13.5029 3.99902C8.26461 3.99913 4.00293 8.26012 4.00293 13.498C4.00296 15.2745 4.50588 17.0155 5.45898 18.5322L5.81543 19.1016L4.80371 21.5459L4.3418 22.6611L5.45703 22.1992L7.89941 21.1865L8.46875 21.5439C9.9852 22.4946 11.7264 23 13.5029 23C18.7415 23 23.0028 18.7363 23.0029 13.498C23.0029 8.25977 18.7413 3.99902 13.5029 3.99902Z" fill="#4EAA97" stroke="white"/>
<path d="M12.2344 11.5117L11.5566 12.1904L11.2031 12.5439L11.5566 12.8975L14.1006 15.4424L14.4541 15.7969L14.8076 15.4434L15.4863 14.7637L17.7852 16.1436L16.9658 16.9619L16.9648 16.9629C16.4907 17.4382 15.7367 17.469 15.2246 17.0518L15.126 16.9629L15.1113 16.9482C15.1017 16.9386 15.0879 16.9239 15.0693 16.9053C15.0321 16.868 14.9768 16.8137 14.9072 16.7441C14.7681 16.6049 14.5696 16.4056 14.3311 16.167C13.8539 15.6898 13.2172 15.0542 12.5811 14.418C11.9702 13.807 11.3596 13.1957 10.8896 12.7256H10.8906L10.0371 11.8721C9.52938 11.3643 9.5294 10.542 10.0371 10.0342L10.8555 9.21484L12.2344 11.5117Z" fill="white" stroke="white"/>
</svg>
